STARTFONT 2.1
COMMENT
COMMENT Converted from OpenType font "Aldrich-Regular.ttf" by "otf2bdf 3.0".
COMMENT
FONT -FreeType-Aldrich-Medium-R-Normal--19-190-72-72-P-90-ISO10646-1
SIZE 19 72 72
FONTBOUNDINGBOX 22 25 -1 -8
STARTPROPERTIES 19
FOUNDRY "FreeType"
FAMILY_NAME "Aldrich"
WEIGHT_NAME "Medium"
SLANT "R"
SETWIDTH_NAME "Normal"
ADD_STYLE_NAME ""
PIXEL_SIZE 19
POINT_SIZE 190
RESOLUTION_X 72
RESOLUTION_Y 72
SPACING "P"
AVERAGE_WIDTH 90
CHARSET_REGISTRY "ISO10646"
CHARSET_ENCODING "1"
FONT_ASCENT 13
FONT_DESCENT 3
COPYRIGHT "Copyright (c) Matthew Desmond, 2011. All rights reserved."
_OTF_FONTFILE "Aldrich-Regular.ttf"
_OTF_PSNAME "Aldrich-Regular"
ENDPROPERTIES
CHARS 248
STARTCHAR 0020
ENCODING 32
SWIDTH 315 0
DWIDTH 6 0
BBX 0 0 0 0
BITMAP
ENDCHAR
STARTCHAR 0021
ENCODING 33
SWIDTH 263 0
DWIDTH 5 0
BBX 3 13 1 0
BITMAP
E0
60
60
60
60
60
40
40
00
00
E0
E0
E0
ENDCHAR
STARTCHAR 0022
ENCODING 34
SWIDTH 473 0
DWIDTH 9 0
BBX 6 6 2 7
BITMAP
DC
DC
DC
CC
C8
88
ENDCHAR
STARTCHAR 0023
ENCODING 35
SWIDTH 789 0
DWIDTH 15 0
BBX 11 13 2 0
BITMAP
18C0
1080
1080
FFE0
FFE0
3180
3180
2100
FFE0
FFE0
6300
6300
6300
ENDCHAR
STARTCHAR 0024
ENCODING 36
SWIDTH 684 0
DWIDTH 13 0
BBX 11 17 1 -2
BITMAP
0600
0600
7FC0
7FE0
4660
4660
4600
7FC0
7FE0
0660
0660
C660
C660
FFE0
7FC0
0600
0600
ENDCHAR
STARTCHAR 0025
ENCODING 37
SWIDTH 947 0
DWIDTH 18 0
BBX 16 13 1 0
BITMAP
7C0C
FC18
C430
C460
C440
FCC0
7D9E
013F
0333
0633
0C33
083F
381E
ENDCHAR
STARTCHAR 0026
ENCODING 38
SWIDTH 736 0
DWIDTH 14 0
BBX 12 13 1 0
BITMAP
3F80
7F80
60C0
40C0
6000
3FF0
7FF0
40C0
C0C0
C0C0
C0C0
7FF0
3F30
ENDCHAR
STARTCHAR 0027
ENCODING 39
SWIDTH 315 0
DWIDTH 6 0
BBX 2 6 2 7
BITMAP
C0
C0
C0
C0
C0
80
ENDCHAR
STARTCHAR 0028
ENCODING 40
SWIDTH 368 0
DWIDTH 7 0
BBX 5 18 1 -4
BITMAP
18
78
60
C0
C0
C0
C0
C0
C0
C0
C0
C0
C0
C0
C0
60
78
18
ENDCHAR
STARTCHAR 0029
ENCODING 41
SWIDTH 368 0
DWIDTH 7 0
BBX 5 18 1 -4
BITMAP
E0
F0
38
18
18
18
18
18
18
18
18
18
18
18
18
38
F0
E0
ENDCHAR
STARTCHAR 002A
ENCODING 42
SWIDTH 526 0
DWIDTH 10 0
BBX 8 7 1 6
BITMAP
18
18
EB
7E
1C
36
62
ENDCHAR
STARTCHAR 002B
ENCODING 43
SWIDTH 684 0
DWIDTH 13 0
BBX 10 11 2 0
BITMAP
0C00
0C00
0C00
0C00
0C00
FFC0
FFC0
0C00
0C00
0C00
0C00
ENDCHAR
STARTCHAR 002C
ENCODING 44
SWIDTH 315 0
DWIDTH 6 0
BBX 2 6 2 -3
BITMAP
C0
C0
C0
40
C0
80
ENDCHAR
STARTCHAR 002D
ENCODING 45
SWIDTH 368 0
DWIDTH 7 0
BBX 4 2 2 4
BITMAP
F0
F0
ENDCHAR
STARTCHAR 002E
ENCODING 46
SWIDTH 315 0
DWIDTH 6 0
BBX 2 3 2 0
BITMAP
C0
C0
C0
ENDCHAR
STARTCHAR 002F
ENCODING 47
SWIDTH 421 0
DWIDTH 8 0
BBX 7 15 1 -1
BITMAP
06
0C
0C
08
18
18
10
30
30
20
60
60
40
C0
C0
ENDCHAR
STARTCHAR 0030
ENCODING 48
SWIDTH 736 0
DWIDTH 14 0
BBX 10 13 2 0
BITMAP
FFC0
FFC0
C0C0
C0C0
C0C0
C0C0
C0C0
C0C0
C0C0
C0C0
C0C0
FFC0
FFC0
ENDCHAR
STARTCHAR 0031
ENCODING 49
SWIDTH 368 0
DWIDTH 7 0
BBX 4 13 1 0
BITMAP
F0
F0
30
30
30
30
30
30
30
30
30
30
30
ENDCHAR
STARTCHAR 0032
ENCODING 50
SWIDTH 684 0
DWIDTH 13 0
BBX 10 13 2 0
BITMAP
FF80
FF80
8180
8180
0180
0380
1E00
7800
E000
80C0
80C0
FFC0
FFC0
ENDCHAR
STARTCHAR 0033
ENCODING 51
SWIDTH 684 0
DWIDTH 13 0
BBX 10 13 1 0
BITMAP
7F80
FFC0
C0C0
C0C0
00C0
1F80
1FC0
00C0
00C0
C0C0
C0C0
FFC0
7F80
ENDCHAR
STARTCHAR 0034
ENCODING 52
SWIDTH 631 0
DWIDTH 12 0
BBX 11 13 0 0
BITMAP
0180
0380
0780
0D80
1D80
1980
3180
6180
DFE0
FFE0
0180
0180
0180
ENDCHAR
STARTCHAR 0035
ENCODING 53
SWIDTH 631 0
DWIDTH 12 0
BBX 10 13 1 0
BITMAP
FFC0
FFC0
C000
C000
C000
FF80
FFC0
00C0
00C0
C0C0
C0C0
FFC0
7F80
ENDCHAR
STARTCHAR 0036
ENCODING 54
SWIDTH 684 0
DWIDTH 13 0
BBX 10 13 2 0
BITMAP
FF80
FFC0
C0C0
C0C0
C000
FF80
FFC0
C0C0
C0C0
C0C0
C0C0
FFC0
FF80
ENDCHAR
STARTCHAR 0037
ENCODING 55
SWIDTH 578 0
DWIDTH 11 0
BBX 10 13 1 0
BITMAP
FFC0
FFC0
0180
0300
0300
0600
0600
0C00
0C00
1800
1800
3000
7000
ENDCHAR
STARTCHAR 0038
ENCODING 56
SWIDTH 684 0
DWIDTH 13 0
BBX 11 13 1 0
BITMAP
3F80
7FC0
6060
4060
6040
3FC0
7FC0
4060
C060
C060
C060
7FC0
3FC0
ENDCHAR
STARTCHAR 0039
ENCODING 57
SWIDTH 684 0
DWIDTH 13 0
BBX 10 13 2 0
BITMAP
FF80
FFC0
C0C0
C0C0
C0C0
FFC0
FFC0
00C0
00C0
C0C0
C0C0
FFC0
FF80
ENDCHAR
STARTCHAR 003A
ENCODING 58
SWIDTH 315 0
DWIDTH 6 0
BBX 2 10 2 0
BITMAP
C0
C0
C0
00
00
00
00
C0
C0
C0
ENDCHAR
STARTCHAR 003B
ENCODING 59
SWIDTH 315 0
DWIDTH 6 0
BBX 2 13 2 -3
BITMAP
C0
C0
C0
00
00
00
00
C0
C0
C0
40
C0
80
ENDCHAR
STARTCHAR 003C
ENCODING 60
SWIDTH 684 0
DWIDTH 13 0
BBX 10 11 1 0
BITMAP
0040
01C0
0F80
3E00
F000
C000
F000
3E00
0F80
01C0
0040
ENDCHAR
STARTCHAR 003D
ENCODING 61
SWIDTH 684 0
DWIDTH 13 0
BBX 10 7 2 2
BITMAP
FFC0
FFC0
0000
0000
0000
FFC0
FFC0
ENDCHAR
STARTCHAR 003E
ENCODING 62
SWIDTH 684 0
DWIDTH 13 0
BBX 10 11 2 0
BITMAP
8000
E000
7800
1F00
07C0
00C0
07C0
1F00
7800
E000
8000
ENDCHAR
STARTCHAR 003F
ENCODING 63
SWIDTH 578 0
DWIDTH 11 0
BBX 9 13 1 0
BITMAP
7F00
FF00
C180
C180
0300
0F00
1800
1800
0000
0000
3800
3800
3800
ENDCHAR
STARTCHAR 0040
ENCODING 64
SWIDTH 1052 0
DWIDTH 20 0
BBX 16 17 2 -4
BITMAP
3FFC
7FFE
E003
C003
C7F1
CFF1
CC31
CC31
CC31
CC31
CC31
CFFF
C7DF
C000
E000
7FFC
3FFC
ENDCHAR
STARTCHAR 0041
ENCODING 65
SWIDTH 684 0
DWIDTH 13 0
BBX 12 13 1 0
BITMAP
0600
0E00
0F00
1B00
1900
1180
3180
30C0
7FC0
7FC0
4060
C060
C030
ENDCHAR
STARTCHAR 0042
ENCODING 66
SWIDTH 684 0
DWIDTH 13 0
BBX 10 13 2 0
BITMAP
FF80
FFC0
C0C0
C0C0
C0C0
FF80
FFC0
C0C0
C0C0
C0C0
C0C0
FFC0
FF80
ENDCHAR
STARTCHAR 0043
ENCODING 67
SWIDTH 736 0
DWIDTH 14 0
BBX 11 13 2 0
BITMAP
FFC0
FFE0
C060
C060
C000
C000
C000
C000
C000
C060
C060
FFE0
FFC0
ENDCHAR
STARTCHAR 0044
ENCODING 68
SWIDTH 736 0
DWIDTH 14 0
BBX 11 13 2 0
BITMAP
FF80
FFC0
C0E0
C060
C060
C060
C060
C060
C060
C060
C0E0
FFC0
FF80
ENDCHAR
STARTCHAR 0045
ENCODING 69
SWIDTH 684 0
DWIDTH 13 0
BBX 9 13 2 0
BITMAP
FF80
FF80
C000
C000
C000
FF00
FF00
C000
C000
C000
C000
FF80
FF80
ENDCHAR
STARTCHAR 0046
ENCODING 70
SWIDTH 631 0
DWIDTH 12 0
BBX 9 13 2 0
BITMAP
FF80
FF80
C000
C000
C000
FF00
FF00
C000
C000
C000
C000
C000
C000
ENDCHAR
STARTCHAR 0047
ENCODING 71
SWIDTH 736 0
DWIDTH 14 0
BBX 11 13 2 0
BITMAP
FFC0
FFE0
C060
C060
C000
C000
C7E0
C7E0
C060
C060
C060
FFE0
FFC0
ENDCHAR
STARTCHAR 0048
ENCODING 72
SWIDTH 789 0
DWIDTH 15 0
BBX 11 13 2 0
BITMAP
C060
C060
C060
C060
C060
FFE0
FFE0
C060
C060
C060
C060
C060
C060
ENDCHAR
STARTCHAR 0049
ENCODING 73
SWIDTH 263 0
DWIDTH 5 0
BBX 2 13 2 0
BITMAP
C0
C0
C0
C0
C0
C0
C0
C0
C0
C0
C0
C0
C0
ENDCHAR
STARTCHAR 004A
ENCODING 74
SWIDTH 631 0
DWIDTH 12 0
BBX 10 13 1 0
BITMAP
00C0
00C0
00C0
00C0
00C0
00C0
00C0
00C0
00C0
C0C0
C0C0
FF80
7F80
ENDCHAR
STARTCHAR 004B
ENCODING 75
SWIDTH 684 0
DWIDTH 13 0
BBX 11 13 2 0
BITMAP
C1E0
C380
C700
CE00
DC00
F000
F000
F800
DC00
CE00
C700
C180
C0E0
ENDCHAR
STARTCHAR 004C
ENCODING 76
SWIDTH 578 0
DWIDTH 11 0
BBX 8 13 2 0
BITMAP
C0
C0
C0
C0
C0
C0
C0
C0
C0
C0
C0
FF
FF
ENDCHAR
STARTCHAR 004D
ENCODING 77
SWIDTH 947 0
DWIDTH 18 0
BBX 14 13 2 0
BITMAP
C00C
E01C
E01C
F03C
F03C
D86C
D86C
CCCC
CC8C
C78C
C70C
C30C
C20C
ENDCHAR
STARTCHAR 004E
ENCODING 78
SWIDTH 789 0
DWIDTH 15 0
BBX 12 13 2 0
BITMAP
C030
E030
F030
F030
D830
CC30
CE30
C730
C330
C1B0
C0F0
C0F0
C070
ENDCHAR
STARTCHAR 004F
ENCODING 79
SWIDTH 789 0
DWIDTH 15 0
BBX 11 13 2 0
BITMAP
FFE0
FFE0
C060
C060
C060
C060
C060
C060
C060
C060
C060
FFE0
FFE0
ENDCHAR
STARTCHAR 0050
ENCODING 80
SWIDTH 684 0
DWIDTH 13 0
BBX 10 13 2 0
BITMAP
FF80
FFC0
C0C0
C0C0
C0C0
C0C0
FFC0
FF80
C000
C000
C000
C000
C000
ENDCHAR
STARTCHAR 0051
ENCODING 81
SWIDTH 789 0
DWIDTH 15 0
BBX 11 15 2 -2
BITMAP
FFE0
FFE0
C060
C060
C060
C060
C060
C060
C060
CC60
CC60
FFE0
FFE0
0C00
0C00
ENDCHAR
STARTCHAR 0052
ENCODING 82
SWIDTH 736 0
DWIDTH 14 0
BBX 10 13 2 0
BITMAP
FF80
FFC0
C0C0
C0C0
C0C0
C0C0
FFC0
FF80
C300
C180
C180
C0C0
C0C0
ENDCHAR
STARTCHAR 0053
ENCODING 83
SWIDTH 736 0
DWIDTH 14 0
BBX 10 13 2 0
BITMAP
FF80
FFC0
C0C0
C0C0
C000
FF80
FFC0
00C0
00C0
80C0
80C0
FFC0
FF80
ENDCHAR
STARTCHAR 0054
ENCODING 84
SWIDTH 631 0
DWIDTH 12 0
BBX 10 13 1 0
BITMAP
FFC0
FFC0
0C00
0C00
0C00
0C00
0C00
0C00
0C00
0C00
0C00
0C00
0C00
ENDCHAR
STARTCHAR 0055
ENCODING 85
SWIDTH 789 0
DWIDTH 15 0
BBX 11 13 2 0
BITMAP
C060
C060
C060
C060
C060
C060
C060
C060
C060
C060
C060
FFE0
FFE0
ENDCHAR
STARTCHAR 0056
ENCODING 86
SWIDTH 684 0
DWIDTH 13 0
BBX 12 13 1 0
BITMAP
C030
C060
6060
6060
60C0
30C0
3180
1980
1980
1B00
0F00
0E00
0600
ENDCHAR
STARTCHAR 0057
ENCODING 87
SWIDTH 1000 0
DWIDTH 19 0
BBX 17 13 1 0
BITMAP
C18180
C1C180
C1C300
43C300
636300
636200
626600
362600
363600
343C00
1C3C00
1C1C00
1C1800
ENDCHAR
STARTCHAR 0058
ENCODING 88
SWIDTH 684 0
DWIDTH 13 0
BBX 11 13 1 0
BITMAP
C060
60C0
71C0
3980
1B00
0E00
0E00
0E00
1B00
3180
71C0
60C0
C060
ENDCHAR
STARTCHAR 0059
ENCODING 89
SWIDTH 684 0
DWIDTH 13 0
BBX 13 13 0 0
BITMAP
E038
7070
3060
18C0
19C0
0D80
0700
0700
0200
0200
0200
0200
0200
ENDCHAR
STARTCHAR 005A
ENCODING 90
SWIDTH 684 0
DWIDTH 13 0
BBX 11 13 1 0
BITMAP
FFE0
FFC0
0180
0180
0300
0600
0E00
0C00
1800
3000
3000
7FE0
FFE0
ENDCHAR
STARTCHAR 005B
ENCODING 91
SWIDTH 421 0
DWIDTH 8 0
BBX 5 18 2 -4
BITMAP
F8
F8
C0
C0
C0
C0
C0
C0
C0
C0
C0
C0
C0
C0
C0
C0
F8
F8
ENDCHAR
STARTCHAR 005C
ENCODING 92
SWIDTH 421 0
DWIDTH 8 0
BBX 7 15 1 -1
BITMAP
C0
C0
40
60
60
20
30
30
10
18
18
08
0C
0C
06
ENDCHAR
STARTCHAR 005D
ENCODING 93
SWIDTH 421 0
DWIDTH 8 0
BBX 5 18 1 -4
BITMAP
F8
F8
18
18
18
18
18
18
18
18
18
18
18
18
18
18
F8
F8
ENDCHAR
STARTCHAR 005E
ENCODING 94
SWIDTH 578 0
DWIDTH 11 0
BBX 9 5 1 8
BITMAP
1C00
3C00
2600
6300
C180
ENDCHAR
STARTCHAR 005F
ENCODING 95
SWIDTH 631 0
DWIDTH 12 0
BBX 12 1 0 -5
BITMAP
FFF0
ENDCHAR
STARTCHAR 0060
ENCODING 96
SWIDTH 368 0
DWIDTH 7 0
BBX 5 2 1 12
BITMAP
E0
38
ENDCHAR
STARTCHAR 0061
ENCODING 97
SWIDTH 578 0
DWIDTH 11 0
BBX 8 10 2 0
BITMAP
FE
FF
03
03
FF
FF
83
83
FF
FB
ENDCHAR
STARTCHAR 0062
ENCODING 98
SWIDTH 631 0
DWIDTH 12 0
BBX 8 14 2 0
BITMAP
80
80
80
80
BF
FF
83
83
83
83
83
83
FF
FF
ENDCHAR
STARTCHAR 0063
ENCODING 99
SWIDTH 578 0
DWIDTH 11 0
BBX 8 10 2 0
BITMAP
FE
FF
83
83
80
80
83
83
FF
FE
ENDCHAR
STARTCHAR 0064
ENCODING 100
SWIDTH 631 0
DWIDTH 12 0
BBX 8 14 2 0
BITMAP
03
03
03
03
FF
FF
83
83
83
83
83
83
FF
FF
ENDCHAR
STARTCHAR 0065
ENCODING 101
SWIDTH 578 0
DWIDTH 11 0
BBX 8 10 2 0
BITMAP
FE
FF
83
83
FF
FF
80
80
FF
FF
ENDCHAR
STARTCHAR 0066
ENCODING 102
SWIDTH 473 0
DWIDTH 9 0
BBX 7 14 1 0
BITMAP
1E
3E
30
30
FE
FE
30
30
30
30
30
30
30
30
ENDCHAR
STARTCHAR 0067
ENCODING 103
SWIDTH 631 0
DWIDTH 12 0
BBX 8 14 2 -4
BITMAP
FF
FF
83
83
83
83
83
83
FF
FF
03
03
7F
7F
ENDCHAR
STARTCHAR 0068
ENCODING 104
SWIDTH 631 0
DWIDTH 12 0
BBX 8 14 2 0
BITMAP
80
80
80
80
BF
FF
83
83
83
83
83
83
83
83
ENDCHAR
STARTCHAR 0069
ENCODING 105
SWIDTH 263 0
DWIDTH 5 0
BBX 2 14 2 0
BITMAP
C0
C0
00
00
80
80
80
80
80
80
80
80
80
80
ENDCHAR
STARTCHAR 006A
ENCODING 106
SWIDTH 263 0
DWIDTH 5 0
BBX 4 18 0 -4
BITMAP
30
30
00
00
20
20
20
20
20
20
20
20
20
20
20
20
E0
E0
ENDCHAR
STARTCHAR 006B
ENCODING 107
SWIDTH 526 0
DWIDTH 10 0
BBX 9 14 2 0
BITMAP
8000
8000
8000
8000
8700
8C00
9800
B000
E000
F000
B800
9C00
8E00
8380
ENDCHAR
STARTCHAR 006C
ENCODING 108
SWIDTH 263 0
DWIDTH 5 0
BBX 1 14 2 0
BITMAP
80
80
80
80
80
80
80
80
80
80
80
80
80
80
ENDCHAR
STARTCHAR 006D
ENCODING 109
SWIDTH 894 0
DWIDTH 17 0
BBX 13 10 2 0
BITMAP
BEF8
FFF8
8208
8208
8208
8208
8208
8208
8208
8208
ENDCHAR
STARTCHAR 006E
ENCODING 110
SWIDTH 631 0
DWIDTH 12 0
BBX 8 10 2 0
BITMAP
BF
FF
83
83
83
83
83
83
83
83
ENDCHAR
STARTCHAR 006F
ENCODING 111
SWIDTH 631 0
DWIDTH 12 0
BBX 8 10 2 0
BITMAP
FE
FF
83
83
83
83
83
83
FF
FE
ENDCHAR
STARTCHAR 0070
ENCODING 112
SWIDTH 631 0
DWIDTH 12 0
BBX 8 14 2 -4
BITMAP
BF
FF
83
83
83
83
83
83
FF
FF
80
80
80
80
ENDCHAR
STARTCHAR 0071
ENCODING 113
SWIDTH 631 0
DWIDTH 12 0
BBX 8 14 2 -4
BITMAP
FF
FF
83
83
83
83
83
83
FF
FF
03
03
03
03
ENDCHAR
STARTCHAR 0072
ENCODING 114
SWIDTH 526 0
DWIDTH 10 0
BBX 7 10 2 0
BITMAP
BC
FE
86
80
80
80
80
80
80
80
ENDCHAR
STARTCHAR 0073
ENCODING 115
SWIDTH 578 0
DWIDTH 11 0
BBX 8 10 1 0
BITMAP
7F
FF
C0
C0
FF
7F
03
03
FF
FF
ENDCHAR
STARTCHAR 0074
ENCODING 116
SWIDTH 526 0
DWIDTH 10 0
BBX 7 13 1 0
BITMAP
30
30
30
FE
FE
30
30
30
30
30
30
3E
1E
ENDCHAR
STARTCHAR 0075
ENCODING 117
SWIDTH 631 0
DWIDTH 12 0
BBX 8 10 2 0
BITMAP
83
83
83
83
83
83
83
83
FF
FF
ENDCHAR
STARTCHAR 0076
ENCODING 118
SWIDTH 578 0
DWIDTH 11 0
BBX 10 10 0 0
BITMAP
C0C0
60C0
6180
3180
3100
1300
1B00
1E00
0E00
0C00
ENDCHAR
STARTCHAR 0077
ENCODING 119
SWIDTH 789 0
DWIDTH 15 0
BBX 15 10 0 0
BITMAP
C186
6384
638C
62CC
36CC
3658
3658
1C78
1C70
1C30
ENDCHAR
STARTCHAR 0078
ENCODING 120
SWIDTH 578 0
DWIDTH 11 0
BBX 9 10 1 0
BITMAP
C180
6300
3600
3E00
1C00
1C00
3600
7600
6300
C180
ENDCHAR
STARTCHAR 0079
ENCODING 121
SWIDTH 526 0
DWIDTH 10 0
BBX 10 14 0 -4
BITMAP
E0C0
6180
6180
3100
3300
1B00
1E00
0E00
0C00
0C00
0C00
1800
1800
3000
ENDCHAR
STARTCHAR 007A
ENCODING 122
SWIDTH 578 0
DWIDTH 11 0
BBX 9 10 1 0
BITMAP
FF80
FF00
0600
0C00
0C00
1800
3000
3000
7F80
FF80
ENDCHAR
STARTCHAR 007B
ENCODING 123
SWIDTH 368 0
DWIDTH 7 0
BBX 6 18 0 -4
BITMAP
0C
1C
30
30
30
30
30
30
E0
E0
30
30
30
30
30
30
1C
0C
ENDCHAR
STARTCHAR 007C
ENCODING 124
SWIDTH 263 0
DWIDTH 5 0
BBX 2 18 2 -4
BITMAP
C0
C0
C0
C0
C0
C0
C0
C0
C0
C0
C0
C0
C0
C0
C0
C0
C0
C0
ENDCHAR
STARTCHAR 007D
ENCODING 125
SWIDTH 368 0
DWIDTH 7 0
BBX 6 18 1 -4
BITMAP
E0
F0
30
30
30
30
30
30
1C
1C
30
30
30
30
30
30
F0
E0
ENDCHAR
STARTCHAR 007E
ENCODING 126
SWIDTH 578 0
DWIDTH 11 0
BBX 9 4 1 4
BITMAP
3180
7980
CF80
C700
ENDCHAR
STARTCHAR 00A0
ENCODING 160
SWIDTH 315 0
DWIDTH 6 0
BBX 0 0 0 0
BITMAP
ENDCHAR
STARTCHAR 00A1
ENCODING 161
SWIDTH 263 0
DWIDTH 5 0
BBX 3 13 1 -4
BITMAP
E0
E0
E0
00
00
40
40
60
60
60
60
60
E0
ENDCHAR
STARTCHAR 00A2
ENCODING 162
SWIDTH 578 0
DWIDTH 11 0
BBX 8 14 2 -2
BITMAP
18
18
FE
FF
83
80
80
80
83
83
FF
FE
18
18
ENDCHAR
STARTCHAR 00A3
ENCODING 163
SWIDTH 736 0
DWIDTH 14 0
BBX 11 13 1 0
BITMAP
3FC0
3FE0
3060
3060
3000
FF00
FF00
3000
3000
3020
3020
FFE0
EFE0
ENDCHAR
STARTCHAR 00A4
ENCODING 164
SWIDTH 631 0
DWIDTH 12 0
BBX 10 9 1 2
BITMAP
7E80
FFC0
3100
6180
6180
7180
3F00
7F80
C0C0
ENDCHAR
STARTCHAR 00A5
ENCODING 165
SWIDTH 684 0
DWIDTH 13 0
BBX 13 13 0 0
BITMAP
E038
7060
3060
18C0
1980
0D80
37E0
3FE0
0200
3FE0
3FE0
0200
0200
ENDCHAR
STARTCHAR 00A6
ENCODING 166
SWIDTH 263 0
DWIDTH 5 0
BBX 2 18 2 -4
BITMAP
C0
C0
C0
C0
C0
C0
C0
C0
00
00
C0
C0
C0
C0
C0
C0
C0
C0
ENDCHAR
STARTCHAR 00A7
ENCODING 167
SWIDTH 684 0
DWIDTH 13 0
BBX 9 18 2 -5
BITMAP
FF80
FF80
C180
C180
C000
FF80
FF80
C180
C180
C180
C180
FF80
7F80
0180
C180
C180
FF80
FF80
ENDCHAR
STARTCHAR 00A8
ENCODING 168
SWIDTH 421 0
DWIDTH 8 0
BBX 6 2 1 12
BITMAP
CC
CC
ENDCHAR
STARTCHAR 00A9
ENCODING 169
SWIDTH 842 0
DWIDTH 16 0
BBX 14 13 1 0
BITMAP
0FC0
3060
6010
4FD8
C8C8
880C
880C
880C
C8C8
4FD8
6010
3060
0FC0
ENDCHAR
STARTCHAR 00AA
ENCODING 170
SWIDTH 473 0
DWIDTH 9 0
BBX 6 10 1 3
BITMAP
7C
04
04
7C
C4
C4
7C
00
00
FC
ENDCHAR
STARTCHAR 00AB
ENCODING 171
SWIDTH 526 0
DWIDTH 10 0
BBX 8 9 1 0
BITMAP
11
11
33
66
CC
66
33
11
11
ENDCHAR
STARTCHAR 00AC
ENCODING 172
SWIDTH 684 0
DWIDTH 13 0
BBX 10 6 2 2
BITMAP
FFC0
FFC0
00C0
00C0
00C0
00C0
ENDCHAR
STARTCHAR 00AE
ENCODING 174
SWIDTH 842 0
DWIDTH 16 0
BBX 14 13 1 0
BITMAP
0FC0
3060
6010
4F98
C8C8
88CC
8F8C
898C
C888
48D8
6010
3060
0FC0
ENDCHAR
STARTCHAR 00AF
ENCODING 175
SWIDTH 473 0
DWIDTH 9 0
BBX 7 2 1 12
BITMAP
FE
FE
ENDCHAR
STARTCHAR 00B0
ENCODING 176
SWIDTH 421 0
DWIDTH 8 0
BBX 6 5 1 8
BITMAP
78
CC
C4
CC
78
ENDCHAR
STARTCHAR 00B1
ENCODING 177
SWIDTH 684 0
DWIDTH 13 0
BBX 10 11 2 0
BITMAP
0C00
0C00
0C00
0C00
FFC0
FFC0
0C00
0C00
0C00
FFC0
FFC0
ENDCHAR
STARTCHAR 00B2
ENCODING 178
SWIDTH 421 0
DWIDTH 8 0
BBX 6 7 1 6
BITMAP
F8
88
18
78
E0
8C
FC
ENDCHAR
STARTCHAR 00B3
ENCODING 179
SWIDTH 421 0
DWIDTH 8 0
BBX 6 7 1 6
BITMAP
78
CC
0C
38
0C
8C
F8
ENDCHAR
STARTCHAR 00B4
ENCODING 180
SWIDTH 368 0
DWIDTH 7 0
BBX 5 2 1 12
BITMAP
38
E0
ENDCHAR
STARTCHAR 00B5
ENCODING 181
SWIDTH 631 0
DWIDTH 12 0
BBX 8 14 2 -4
BITMAP
83
83
83
83
83
83
83
83
FF
FF
80
80
80
80
ENDCHAR
STARTCHAR 00B6
ENCODING 182
SWIDTH 684 0
DWIDTH 13 0
BBX 10 17 1 -4
BITMAP
7FC0
FFC0
FC40
FC40
FC40
FC40
FC40
7C40
0440
0440
0440
0440
0440
0440
0440
0440
0440
ENDCHAR
STARTCHAR 00B7
ENCODING 183
SWIDTH 315 0
DWIDTH 6 0
BBX 2 3 2 5
BITMAP
C0
C0
C0
ENDCHAR
STARTCHAR 00B8
ENCODING 184
SWIDTH 526 0
DWIDTH 10 0
BBX 4 6 2 -5
BITMAP
30
20
70
10
10
F0
ENDCHAR
STARTCHAR 00B9
ENCODING 185
SWIDTH 263 0
DWIDTH 5 0
BBX 2 7 1 6
BITMAP
C0
40
40
40
40
40
40
ENDCHAR
STARTCHAR 00BA
ENCODING 186
SWIDTH 473 0
DWIDTH 9 0
BBX 6 10 1 3
BITMAP
7C
C4
C4
C4
C4
C4
7C
00
00
FC
ENDCHAR
STARTCHAR 00BB
ENCODING 187
SWIDTH 526 0
DWIDTH 10 0
BBX 9 9 1 0
BITMAP
8800
CC00
6600
3300
1180
3300
6600
CC00
8800
ENDCHAR
STARTCHAR 00BC
ENCODING 188
SWIDTH 789 0
DWIDTH 15 0
BBX 13 13 1 0
BITMAP
E060
60C0
6080
6180
6300
6200
6630
0C70
08F0
11B0
31F8
2030
4030
ENDCHAR
STARTCHAR 00BD
ENCODING 189
SWIDTH 842 0
DWIDTH 16 0
BBX 14 13 1 0
BITMAP
E060
60C0
6080
6180
6300
6200
667C
0CCC
080C
1038
30E0
20C4
40FC
ENDCHAR
STARTCHAR 00BE
ENCODING 190
SWIDTH 947 0
DWIDTH 18 0
BBX 15 13 1 0
BITMAP
780C
C418
0430
3820
0460
C4C0
7C8C
018C
0314
0224
043E
0C04
1804
ENDCHAR
STARTCHAR 00BF
ENCODING 191
SWIDTH 578 0
DWIDTH 11 0
BBX 9 13 1 -4
BITMAP
1C00
1C00
1C00
0000
0000
0C00
1C00
7800
E000
C180
C180
FF00
7F00
ENDCHAR
STARTCHAR 00C0
ENCODING 192
SWIDTH 684 0
DWIDTH 13 0
BBX 12 17 1 0
BITMAP
3C00
0600
0000
0000
0E00
0E00
0F00
1B00
1900
3180
3180
30C0
7FC0
7FC0
4060
C060
C030
ENDCHAR
STARTCHAR 00C1
ENCODING 193
SWIDTH 684 0
DWIDTH 13 0
BBX 12 17 1 0
BITMAP
0380
0600
0800
0000
0E00
0E00
0F00
1B00
1900
3180
3180
30C0
7FC0
7FC0
4060
C060
C030
ENDCHAR
STARTCHAR 00C2
ENCODING 194
SWIDTH 684 0
DWIDTH 13 0
BBX 12 17 1 0
BITMAP
0E00
1B00
2080
0000
0E00
0E00
0F00
1B00
1900
3180
3180
30C0
7FC0
7FC0
4060
C060
C030
ENDCHAR
STARTCHAR 00C3
ENCODING 195
SWIDTH 684 0
DWIDTH 13 0
BBX 12 17 1 0
BITMAP
1C80
2780
0000
0000
0E00
0E00
0F00
1B00
1900
3180
3180
30C0
7FC0
7FC0
4060
C060
C030
ENDCHAR
STARTCHAR 00C4
ENCODING 196
SWIDTH 684 0
DWIDTH 13 0
BBX 12 17 1 0
BITMAP
1980
1980
0000
0000
0E00
0E00
0F00
1B00
1900
3180
3180
30C0
7FC0
7FC0
4060
C060
C030
ENDCHAR
STARTCHAR 00C5
ENCODING 197
SWIDTH 684 0
DWIDTH 13 0
BBX 12 17 1 0
BITMAP
0E00
1900
1100
1B00
0E00
0E00
0F00
1B00
1900
3180
3180
30C0
7FC0
7FC0
4060
C060
C030
ENDCHAR
STARTCHAR 00C6
ENCODING 198
SWIDTH 1157 0
DWIDTH 22 0
BBX 21 13 0 0
BITMAP
003FF8
007FF8
00F800
00D800
019800
031FF0
061FF0
0E1800
0FF800
1FF800
301800
701FF8
E01FF8
ENDCHAR
STARTCHAR 00C7
ENCODING 199
SWIDTH 736 0
DWIDTH 14 0
BBX 11 18 2 -5
BITMAP
FFC0
FFE0
C060
C060
C000
C000
C000
C000
C000
C060
C060
FFE0
FFC0
0400
0E00
1200
0200
1E00
ENDCHAR
STARTCHAR 00C8
ENCODING 200
SWIDTH 684 0
DWIDTH 13 0
BBX 9 17 2 0
BITMAP
7800
0C00
0000
0000
FF80
FF80
C000
C000
C000
FF00
FF00
C000
C000
C000
C000
FF80
FF80
ENDCHAR
STARTCHAR 00C9
ENCODING 201
SWIDTH 684 0
DWIDTH 13 0
BBX 9 17 2 0
BITMAP
0E00
1800
0000
0000
FF80
FF80
C000
C000
C000
FF00
FF00
C000
C000
C000
C000
FF80
FF80
ENDCHAR
STARTCHAR 00CA
ENCODING 202
SWIDTH 684 0
DWIDTH 13 0
BBX 9 17 2 0
BITMAP
1C00
3600
4100
0000
FF80
FF80
C000
C000
C000
FF00
FF00
C000
C000
C000
C000
FF80
FF80
ENDCHAR
STARTCHAR 00CB
ENCODING 203
SWIDTH 684 0
DWIDTH 13 0
BBX 9 17 2 0
BITMAP
3300
3300
0000
0000
FF80
FF80
C000
C000
C000
FF00
FF00
C000
C000
C000
C000
FF80
FF80
ENDCHAR
STARTCHAR 00CC
ENCODING 204
SWIDTH 263 0
DWIDTH 5 0
BBX 5 17 -1 0
BITMAP
F0
18
00
00
18
18
18
18
18
18
18
18
18
18
18
18
18
ENDCHAR
STARTCHAR 00CD
ENCODING 205
SWIDTH 263 0
DWIDTH 5 0
BBX 5 17 1 0
BITMAP
38
60
80
00
60
60
60
60
60
60
60
60
60
60
60
60
60
ENDCHAR
STARTCHAR 00CE
ENCODING 206
SWIDTH 263 0
DWIDTH 5 0
BBX 7 17 -1 0
BITMAP
38
6C
82
00
18
18
18
18
18
18
18
18
18
18
18
18
18
ENDCHAR
STARTCHAR 00CF
ENCODING 207
SWIDTH 263 0
DWIDTH 5 0
BBX 6 17 0 0
BITMAP
CC
CC
00
00
30
30
30
30
30
30
30
30
30
30
30
30
30
ENDCHAR
STARTCHAR 00D0
ENCODING 208
SWIDTH 789 0
DWIDTH 15 0
BBX 14 13 0 0
BITMAP
3FE0
3FF0
3018
3018
300C
300C
FE0C
FE0C
300C
3018
3018
3FF0
3FE0
ENDCHAR
STARTCHAR 00D1
ENCODING 209
SWIDTH 789 0
DWIDTH 15 0
BBX 12 17 2 0
BITMAP
1C80
2700
0000
0000
C030
E030
F030
F830
D830
CC30
C630
C730
C330
C1B0
C0F0
C0F0
C070
ENDCHAR
STARTCHAR 00D2
ENCODING 210
SWIDTH 789 0
DWIDTH 15 0
BBX 11 17 2 0
BITMAP
3800
0C00
0200
0000
FFE0
FFE0
C060
C060
C060
C060
C060
C060
C060
C060
C060
FFE0
FFE0
ENDCHAR
STARTCHAR 00D3
ENCODING 211
SWIDTH 789 0
DWIDTH 15 0
BBX 11 17 2 0
BITMAP
0780
0C00
0000
0000
FFE0
FFE0
C060
C060
C060
C060
C060
C060
C060
C060
C060
FFE0
FFE0
ENDCHAR
STARTCHAR 00D4
ENCODING 212
SWIDTH 789 0
DWIDTH 15 0
BBX 11 17 2 0
BITMAP
0E00
1B00
2080
0000
FFE0
FFE0
C060
C060
C060
C060
C060
C060
C060
C060
C060
FFE0
FFE0
ENDCHAR
STARTCHAR 00D5
ENCODING 213
SWIDTH 789 0
DWIDTH 15 0
BBX 11 17 2 0
BITMAP
1C80
2700
0000
0000
FFE0
FFE0
C060
C060
C060
C060
C060
C060
C060
C060
C060
FFE0
FFE0
ENDCHAR
STARTCHAR 00D6
ENCODING 214
SWIDTH 789 0
DWIDTH 15 0
BBX 11 17 2 0
BITMAP
3300
3300
0000
0000
FFE0
FFE0
C060
C060
C060
C060
C060
C060
C060
C060
C060
FFE0
FFE0
ENDCHAR
STARTCHAR 00D7
ENCODING 215
SWIDTH 684 0
DWIDTH 13 0
BBX 10 10 1 0
BITMAP
4040
E0C0
7180
3B00
1E00
1E00
3B00
7180
E0C0
4040
ENDCHAR
STARTCHAR 00D8
ENCODING 216
SWIDTH 789 0
DWIDTH 15 0
BBX 11 17 2 -2
BITMAP
0060
0040
FFE0
FFE0
C1E0
C360
C260
C660
C460
CC60
D860
D060
F060
FFE0
FFC0
4000
8000
ENDCHAR
STARTCHAR 00D9
ENCODING 217
SWIDTH 789 0
DWIDTH 15 0
BBX 11 17 2 0
BITMAP
3800
0C00
0200
0000
C060
C060
C060
C060
C060
C060
C060
C060
C060
C060
C060
FFE0
FFC0
ENDCHAR
STARTCHAR 00DA
ENCODING 218
SWIDTH 789 0
DWIDTH 15 0
BBX 11 17 2 0
BITMAP
0380
0E00
0000
0000
C060
C060
C060
C060
C060
C060
C060
C060
C060
C060
C060
FFE0
FFC0
ENDCHAR
STARTCHAR 00DB
ENCODING 219
SWIDTH 789 0
DWIDTH 15 0
BBX 11 17 2 0
BITMAP
0E00
1B00
2080
0000
C060
C060
C060
C060
C060
C060
C060
C060
C060
C060
C060
FFE0
FFC0
ENDCHAR
STARTCHAR 00DC
ENCODING 220
SWIDTH 789 0
DWIDTH 15 0
BBX 11 17 2 0
BITMAP
3300
3300
0000
0000
C060
C060
C060
C060
C060
C060
C060
C060
C060
C060
C060
FFE0
FFC0
ENDCHAR
STARTCHAR 00DD
ENCODING 221
SWIDTH 684 0
DWIDTH 13 0
BBX 13 17 0 0
BITMAP
01C0
0300
0400
0000
E038
7060
3060
18C0
1D80
0D80
0700
0700
0200
0200
0200
0200
0200
ENDCHAR
STARTCHAR 00DE
ENCODING 222
SWIDTH 684 0
DWIDTH 13 0
BBX 10 14 2 0
BITMAP
C000
C000
C000
FF80
FFC0
C0C0
C0C0
C0C0
C0C0
FFC0
FF80
C000
C000
C000
ENDCHAR
STARTCHAR 00DF
ENCODING 223
SWIDTH 631 0
DWIDTH 12 0
BBX 9 14 2 0
BITMAP
FF00
FF80
C180
C180
C700
CE00
D800
D800
DF80
CF80
C080
C080
DF80
DF80
ENDCHAR
STARTCHAR 00E0
ENCODING 224
SWIDTH 578 0
DWIDTH 11 0
BBX 8 14 2 0
BITMAP
F0
18
00
00
FE
FF
03
03
FF
FF
83
83
FF
FB
ENDCHAR
STARTCHAR 00E1
ENCODING 225
SWIDTH 578 0
DWIDTH 11 0
BBX 8 14 2 0
BITMAP
0E
18
20
00
FE
FF
03
03
FF
FF
83
83
FF
FB
ENDCHAR
STARTCHAR 00E2
ENCODING 226
SWIDTH 578 0
DWIDTH 11 0
BBX 8 14 2 0
BITMAP
3C
76
00
00
FE
FF
03
03
FF
FF
83
83
FF
FB
ENDCHAR
STARTCHAR 00E3
ENCODING 227
SWIDTH 578 0
DWIDTH 11 0
BBX 8 14 2 0
BITMAP
73
CE
00
00
FE
FF
03
03
FF
FF
83
83
FF
FB
ENDCHAR
STARTCHAR 00E4
ENCODING 228
SWIDTH 578 0
DWIDTH 11 0
BBX 8 14 2 0
BITMAP
66
66
00
00
FE
FF
03
03
FF
FF
83
83
FF
FB
ENDCHAR
STARTCHAR 00E5
ENCODING 229
SWIDTH 578 0
DWIDTH 11 0
BBX 8 16 2 0
BITMAP
38
24
64
24
38
00
FE
FF
03
03
FF
FF
83
83
FF
FB
ENDCHAR
STARTCHAR 00E6
ENCODING 230
SWIDTH 947 0
DWIDTH 18 0
BBX 14 10 2 0
BITMAP
FDFC
FFFC
0304
0304
FFFC
FFFC
8300
8300
FFFC
F9FC
ENDCHAR
STARTCHAR 00E7
ENCODING 231
SWIDTH 578 0
DWIDTH 11 0
BBX 8 15 2 -5
BITMAP
FE
FF
83
83
80
80
83
83
FF
FE
10
38
08
08
38
ENDCHAR
STARTCHAR 00E8
ENCODING 232
SWIDTH 578 0
DWIDTH 11 0
BBX 8 14 2 0
BITMAP
F0
18
00
00
FE
FF
83
83
FF
FF
80
80
FF
FF
ENDCHAR
STARTCHAR 00E9
ENCODING 233
SWIDTH 578 0
DWIDTH 11 0
BBX 8 14 2 0
BITMAP
0E
18
20
00
FE
FF
83
83
FF
FF
80
80
FF
FF
ENDCHAR
STARTCHAR 00EA
ENCODING 234
SWIDTH 578 0
DWIDTH 11 0
BBX 8 14 2 0
BITMAP
38
6C
82
00
FE
FF
83
83
FF
FF
80
80
FF
FF
ENDCHAR
STARTCHAR 00EB
ENCODING 235
SWIDTH 578 0
DWIDTH 11 0
BBX 8 14 2 0
BITMAP
66
66
00
00
FE
FF
83
83
FF
FF
80
80
FF
FF
ENDCHAR
STARTCHAR 00EC
ENCODING 236
SWIDTH 263 0
DWIDTH 5 0
BBX 5 14 -1 0
BITMAP
F0
18
00
00
10
10
10
10
10
10
10
10
10
10
ENDCHAR
STARTCHAR 00ED
ENCODING 237
SWIDTH 263 0
DWIDTH 5 0
BBX 5 14 1 0
BITMAP
78
E0
00
00
40
40
40
40
40
40
40
40
40
40
ENDCHAR
STARTCHAR 00EE
ENCODING 238
SWIDTH 263 0
DWIDTH 5 0
BBX 7 14 -1 0
BITMAP
38
6C
82
00
10
10
10
10
10
10
10
10
10
10
ENDCHAR
STARTCHAR 00EF
ENCODING 239
SWIDTH 263 0
DWIDTH 5 0
BBX 5 14 0 0
BITMAP
D8
D8
00
00
20
20
20
20
20
20
20
20
20
20
ENDCHAR
STARTCHAR 00F0
ENCODING 240
SWIDTH 631 0
DWIDTH 12 0
BBX 8 15 2 0
BITMAP
10
1F
0C
1E
03
FF
FF
83
83
83
83
83
83
FF
FE
ENDCHAR
STARTCHAR 00F1
ENCODING 241
SWIDTH 631 0
DWIDTH 12 0
BBX 8 14 2 0
BITMAP
73
CE
00
00
BF
FF
83
83
83
83
83
83
83
83
ENDCHAR
STARTCHAR 00F2
ENCODING 242
SWIDTH 631 0
DWIDTH 12 0
BBX 8 14 2 0
BITMAP
70
18
00
00
FE
FF
83
83
83
83
83
83
FF
FE
ENDCHAR
STARTCHAR 00F3
ENCODING 243
SWIDTH 631 0
DWIDTH 12 0
BBX 8 14 2 0
BITMAP
0E
18
20
00
FE
FF
83
83
83
83
83
83
FF
FE
ENDCHAR
STARTCHAR 00F4
ENCODING 244
SWIDTH 631 0
DWIDTH 12 0
BBX 8 14 2 0
BITMAP
38
6C
82
00
FE
FF
83
83
83
83
83
83
FF
FE
ENDCHAR
STARTCHAR 00F5
ENCODING 245
SWIDTH 631 0
DWIDTH 12 0
BBX 8 14 2 0
BITMAP
72
CE
00
00
FE
FF
83
83
83
83
83
83
FF
FE
ENDCHAR
STARTCHAR 00F6
ENCODING 246
SWIDTH 631 0
DWIDTH 12 0
BBX 8 14 2 0
BITMAP
66
66
00
00
FE
FF
83
83
83
83
83
83
FF
FE
ENDCHAR
STARTCHAR 00F7
ENCODING 247
SWIDTH 684 0
DWIDTH 13 0
BBX 10 11 2 0
BITMAP
1C00
1C00
1C00
0000
0000
FFC0
FFC0
0000
1C00
1C00
1C00
ENDCHAR
STARTCHAR 00F8
ENCODING 248
SWIDTH 631 0
DWIDTH 12 0
BBX 8 14 2 -2
BITMAP
03
02
FF
FF
8F
8B
9B
93
B3
A3
FF
FE
C0
80
ENDCHAR
STARTCHAR 00F9
ENCODING 249
SWIDTH 631 0
DWIDTH 12 0
BBX 8 14 2 0
BITMAP
F0
18
00
00
83
83
83
83
83
83
83
83
FF
FF
ENDCHAR
STARTCHAR 00FA
ENCODING 250
SWIDTH 631 0
DWIDTH 12 0
BBX 8 14 2 0
BITMAP
0E
18
20
00
83
83
83
83
83
83
83
83
FF
FF
ENDCHAR
STARTCHAR 00FB
ENCODING 251
SWIDTH 631 0
DWIDTH 12 0
BBX 8 14 2 0
BITMAP
38
6C
82
00
83
83
83
83
83
83
83
83
FF
FF
ENDCHAR
STARTCHAR 00FC
ENCODING 252
SWIDTH 631 0
DWIDTH 12 0
BBX 8 14 2 0
BITMAP
66
66
00
00
83
83
83
83
83
83
83
83
FF
FF
ENDCHAR
STARTCHAR 00FD
ENCODING 253
SWIDTH 526 0
DWIDTH 10 0
BBX 10 18 0 -4
BITMAP
0780
0600
0800
0000
E0C0
6180
6180
3100
3300
1B00
1E00
0E00
0C00
0C00
0800
1800
1800
3000
ENDCHAR
STARTCHAR 00FE
ENCODING 254
SWIDTH 631 0
DWIDTH 12 0
BBX 8 18 2 -4
BITMAP
80
80
80
80
BF
FF
83
83
83
83
83
83
FF
FF
80
80
80
80
ENDCHAR
STARTCHAR 00FF
ENCODING 255
SWIDTH 526 0
DWIDTH 10 0
BBX 10 18 0 -4
BITMAP
3300
3300
0000
0000
C0C0
6180
6180
3180
3300
1B00
1E00
0E00
0C00
0C00
0C00
1800
1800
3000
ENDCHAR
STARTCHAR 0127
ENCODING 295
SWIDTH 631 0
DWIDTH 12 0
BBX 10 14 0 0
BITMAP
2000
2000
FE00
2000
2FC0
3FC0
20C0
20C0
20C0
20C0
20C0
20C0
20C0
20C0
ENDCHAR
STARTCHAR 0128
ENCODING 296
SWIDTH 263 0
DWIDTH 5 0
BBX 7 17 -1 0
BITMAP
72
9E
00
00
18
18
18
18
18
18
18
18
18
18
18
18
18
ENDCHAR
STARTCHAR 0129
ENCODING 297
SWIDTH 263 0
DWIDTH 5 0
BBX 7 14 -1 0
BITMAP
72
9C
00
00
10
10
10
10
10
10
10
10
10
10
ENDCHAR
STARTCHAR 0131
ENCODING 305
SWIDTH 263 0
DWIDTH 5 0
BBX 1 10 2 0
BITMAP
80
80
80
80
80
80
80
80
80
80
ENDCHAR
STARTCHAR 0132
ENCODING 306
SWIDTH 947 0
DWIDTH 18 0
BBX 14 13 2 0
BITMAP
C00C
C00C
C00C
C00C
C00C
C00C
C00C
C00C
C00C
C60C
C60C
C7FC
C7F8
ENDCHAR
STARTCHAR 0133
ENCODING 307
SWIDTH 526 0
DWIDTH 10 0
BBX 7 18 2 -4
BITMAP
C6
C6
00
00
84
84
84
84
84
84
84
84
84
84
04
04
1C
1C
ENDCHAR
STARTCHAR 0134
ENCODING 308
SWIDTH 631 0
DWIDTH 12 0
BBX 12 17 1 0
BITMAP
01C0
0360
0410
0000
00C0
00C0
00C0
00C0
00C0
00C0
00C0
00C0
00C0
C0C0
C0C0
FF80
7F80
ENDCHAR
STARTCHAR 0135
ENCODING 309
SWIDTH 263 0
DWIDTH 5 0
BBX 7 18 -1 -4
BITMAP
38
6C
82
00
10
10
10
10
10
10
10
10
10
10
10
10
70
70
ENDCHAR
STARTCHAR 0137
ENCODING 311
SWIDTH 526 0
DWIDTH 10 0
BBX 9 22 2 -8
BITMAP
8000
8000
8000
8000
8700
8E00
9C00
B000
E000
F000
B800
9C00
8E00
8700
0080
0000
3800
3800
3800
1000
1000
2000
ENDCHAR
STARTCHAR 0138
ENCODING 312
SWIDTH 526 0
DWIDTH 10 0
BBX 9 10 2 0
BITMAP
8700
8E00
9800
B000
E000
F000
B800
9C00
8E00
8780
ENDCHAR
STARTCHAR 013F
ENCODING 319
SWIDTH 578 0
DWIDTH 11 0
BBX 8 13 2 0
BITMAP
C0
C0
C0
C0
C0
CC
CC
C0
C0
C0
C0
FF
FF
ENDCHAR
STARTCHAR 0140
ENCODING 320
SWIDTH 473 0
DWIDTH 9 0
BBX 6 14 2 0
BITMAP
80
80
80
80
80
80
8C
8C
80
80
80
80
80
80
ENDCHAR
STARTCHAR 0141
ENCODING 321
SWIDTH 578 0
DWIDTH 11 0
BBX 11 13 0 0
BITMAP
3000
3000
3000
3000
3000
3E00
3C00
F000
3000
3000
3000
3FE0
3FE0
ENDCHAR
STARTCHAR 0142
ENCODING 322
SWIDTH 315 0
DWIDTH 6 0
BBX 6 14 0 0
BITMAP
30
30
30
30
30
34
3C
78
F0
30
30
30
30
30
ENDCHAR
STARTCHAR 0143
ENCODING 323
SWIDTH 789 0
DWIDTH 15 0
BBX 12 17 2 0
BITMAP
0380
0600
0800
0000
C030
E030
F030
F830
D830
CC30
C630
C730
C330
C1B0
C0F0
C0F0
C070
ENDCHAR
STARTCHAR 0144
ENCODING 324
SWIDTH 631 0
DWIDTH 12 0
BBX 8 14 2 0
BITMAP
0E
18
20
00
BF
FF
83
83
83
83
83
83
83
83
ENDCHAR
STARTCHAR 0152
ENCODING 338
SWIDTH 1105 0
DWIDTH 21 0
BBX 18 13 2 0
BITMAP
FFFFC0
FFFFC0
C0C000
C0C000
C0C000
C0FF80
C0FF80
C0C000
C0C000
C0C000
C0C000
FFFFC0
FFFFC0
ENDCHAR
STARTCHAR 0153
ENCODING 339
SWIDTH 947 0
DWIDTH 18 0
BBX 15 10 2 0
BITMAP
FEFC
FFFE
8306
8306
83FE
83FE
8300
8300
FFFE
FEFE
ENDCHAR
STARTCHAR 0154
ENCODING 340
SWIDTH 736 0
DWIDTH 14 0
BBX 10 17 2 0
BITMAP
0700
0C00
1000
0000
FF80
FFC0
C0C0
C0C0
C0C0
C0C0
FFC0
FF80
C300
C180
C180
C0C0
C0C0
ENDCHAR
STARTCHAR 0156
ENCODING 342
SWIDTH 736 0
DWIDTH 14 0
BBX 10 21 2 -8
BITMAP
FF80
FFC0
C0C0
C0C0
C0C0
C0C0
FFC0
FF80
C300
C380
C180
C180
C0C0
0000
0000
1C00
1C00
1C00
0400
0C00
1800
ENDCHAR
STARTCHAR 0157
ENCODING 343
SWIDTH 526 0
DWIDTH 10 0
BBX 7 18 2 -8
BITMAP
BC
FE
86
80
80
80
80
80
80
80
00
00
C0
C0
C0
40
C0
80
ENDCHAR
STARTCHAR 0158
ENCODING 344
SWIDTH 736 0
DWIDTH 14 0
BBX 10 17 2 0
BITMAP
7300
1E00
0000
0000
FF80
FFC0
C0C0
C0C0
C0C0
C0C0
FFC0
FF80
C300
C180
C180
C0C0
C0C0
ENDCHAR
STARTCHAR 0159
ENCODING 345
SWIDTH 526 0
DWIDTH 10 0
BBX 7 14 2 0
BITMAP
CE
78
00
00
BC
FE
86
80
80
80
80
80
80
80
ENDCHAR
STARTCHAR 0160
ENCODING 352
SWIDTH 736 0
DWIDTH 14 0
BBX 10 17 2 0
BITMAP
7300
1E00
0000
0000
FF80
FFC0
C0C0
C0C0
C000
FF80
FFC0
00C0
00C0
80C0
80C0
FFC0
FF80
ENDCHAR
STARTCHAR 0161
ENCODING 353
SWIDTH 578 0
DWIDTH 11 0
BBX 8 14 1 0
BITMAP
67
3C
00
00
7F
FF
C0
C0
FF
7F
03
03
FF
FF
ENDCHAR
STARTCHAR 0178
ENCODING 376
SWIDTH 684 0
DWIDTH 13 0
BBX 13 17 0 0
BITMAP
0D80
0D80
0000
0000
E038
3060
3060
18C0
1D80
0D80
0700
0700
0200
0200
0200
0200
0200
ENDCHAR
STARTCHAR 017D
ENCODING 381
SWIDTH 684 0
DWIDTH 13 0
BBX 11 17 1 0
BITMAP
3B80
0E00
0000
0000
FFE0
FFC0
0180
0180
0300
0600
0E00
0C00
1800
3000
3000
7FE0
FFE0
ENDCHAR
STARTCHAR 017E
ENCODING 382
SWIDTH 578 0
DWIDTH 11 0
BBX 9 14 1 0
BITMAP
6700
3C00
0000
0000
FF80
FF00
0600
0C00
0C00
1800
3000
3000
7F80
FF80
ENDCHAR
STARTCHAR 0192
ENCODING 402
SWIDTH 473 0
DWIDTH 9 0
BBX 10 18 -1 -4
BITMAP
03C0
07C0
0600
0600
0600
3F80
3F80
0C00
0C00
0C00
0C00
0800
1800
1800
1800
1800
F800
F000
ENDCHAR
STARTCHAR 02C6
ENCODING 710
SWIDTH 473 0
DWIDTH 9 0
BBX 7 2 1 12
BITMAP
38
EE
ENDCHAR
STARTCHAR 02C7
ENCODING 711
SWIDTH 473 0
DWIDTH 9 0
BBX 7 2 1 12
BITMAP
EE
38
ENDCHAR
STARTCHAR 02D8
ENCODING 728
SWIDTH 473 0
DWIDTH 9 0
BBX 7 3 1 11
BITMAP
C6
7C
38
ENDCHAR
STARTCHAR 02D9
ENCODING 729
SWIDTH 263 0
DWIDTH 5 0
BBX 3 2 1 12
BITMAP
E0
E0
ENDCHAR
STARTCHAR 02DA
ENCODING 730
SWIDTH 526 0
DWIDTH 10 0
BBX 5 5 2 11
BITMAP
70
D8
88
D8
70
ENDCHAR
STARTCHAR 02DB
ENCODING 731
SWIDTH 315 0
DWIDTH 6 0
BBX 4 5 1 -5
BITMAP
60
C0
C0
D0
70
ENDCHAR
STARTCHAR 02DC
ENCODING 732
SWIDTH 526 0
DWIDTH 10 0
BBX 7 2 1 12
BITMAP
72
CE
ENDCHAR
STARTCHAR 02DD
ENCODING 733
SWIDTH 578 0
DWIDTH 11 0
BBX 9 2 1 12
BITMAP
3B80
EE00
ENDCHAR
STARTCHAR 0307
ENCODING 775
SWIDTH 263 0
DWIDTH 5 0
BBX 3 2 1 12
BITMAP
E0
E0
ENDCHAR
STARTCHAR 2013
ENCODING 8211
SWIDTH 789 0
DWIDTH 15 0
BBX 12 2 2 4
BITMAP
FFF0
FFF0
ENDCHAR
STARTCHAR 2014
ENCODING 8212
SWIDTH 1000 0
DWIDTH 19 0
BBX 15 2 2 4
BITMAP
FFFE
FFFE
ENDCHAR
STARTCHAR 2018
ENCODING 8216
SWIDTH 315 0
DWIDTH 6 0
BBX 2 5 2 8
BITMAP
40
80
C0
C0
C0
ENDCHAR
STARTCHAR 2019
ENCODING 8217
SWIDTH 263 0
DWIDTH 5 0
BBX 2 5 2 8
BITMAP
C0
C0
C0
40
80
ENDCHAR
STARTCHAR 201A
ENCODING 8218
SWIDTH 315 0
DWIDTH 6 0
BBX 2 6 2 -3
BITMAP
C0
C0
C0
40
C0
80
ENDCHAR
STARTCHAR 201C
ENCODING 8220
SWIDTH 526 0
DWIDTH 10 0
BBX 6 5 2 8
BITMAP
4C
88
DC
DC
DC
ENDCHAR
STARTCHAR 201D
ENCODING 8221
SWIDTH 526 0
DWIDTH 10 0
BBX 6 5 2 8
BITMAP
DC
DC
DC
48
98
ENDCHAR
STARTCHAR 201E
ENCODING 8222
SWIDTH 526 0
DWIDTH 10 0
BBX 6 6 2 -3
BITMAP
DC
DC
DC
4C
C8
98
ENDCHAR
STARTCHAR 2020
ENCODING 8224
SWIDTH 631 0
DWIDTH 12 0
BBX 9 17 1 -4
BITMAP
0C00
0C00
0C00
FF80
FF80
0C00
0C00
0C00
0C00
0C00
0C00
0C00
0C00
0C00
0C00
0C00
0C00
ENDCHAR
STARTCHAR 2021
ENCODING 8225
SWIDTH 631 0
DWIDTH 12 0
BBX 9 17 1 -4
BITMAP
0C00
0C00
0C00
FF80
FF80
0C00
0C00
0C00
0C00
0C00
0C00
FF80
FF80
0C00
0C00
0C00
0C00
ENDCHAR
STARTCHAR 2022
ENCODING 8226
SWIDTH 473 0
DWIDTH 9 0
BBX 7 7 1 3
BITMAP
38
7C
FE
FE
FE
7C
38
ENDCHAR
STARTCHAR 2026
ENCODING 8230
SWIDTH 789 0
DWIDTH 15 0
BBX 12 3 2 0
BITMAP
CE70
CE70
CE70
ENDCHAR
STARTCHAR 2039
ENCODING 8249
SWIDTH 315 0
DWIDTH 6 0
BBX 4 9 1 0
BITMAP
10
10
30
60
C0
60
30
10
10
ENDCHAR
STARTCHAR 203A
ENCODING 8250
SWIDTH 315 0
DWIDTH 6 0
BBX 4 9 1 0
BITMAP
80
C0
60
30
10
30
60
C0
80
ENDCHAR
STARTCHAR 2044
ENCODING 8260
SWIDTH 578 0
DWIDTH 11 0
BBX 11 13 0 0
BITMAP
0060
00C0
0180
0100
0200
0600
0400
0800
1800
1000
2000
6000
C000
ENDCHAR
STARTCHAR 20AC
ENCODING 8364
SWIDTH 789 0
DWIDTH 15 0
BBX 13 13 1 0
BITMAP
3FF0
3FF8
2018
2000
FFC0
FF80
2000
FF00
FE00
2000
2018
3FF8
3FF0
ENDCHAR
STARTCHAR 2122
ENCODING 8482
SWIDTH 894 0
DWIDTH 17 0
BBX 14 6 1 7
BITMAP
FD04
218C
21CC
2154
2174
2124
ENDCHAR
STARTCHAR 2212
ENCODING 8722
SWIDTH 684 0
DWIDTH 13 0
BBX 10 2 2 4
BITMAP
FFC0
FFC0
ENDCHAR
STARTCHAR F6BE
ENCODING 63166
SWIDTH 263 0
DWIDTH 5 0
BBX 3 14 0 -4
BITMAP
20
20
20
20
20
20
20
20
20
20
20
20
E0
E0
ENDCHAR
STARTCHAR F6C3
ENCODING 63171
SWIDTH 263 0
DWIDTH 5 0
BBX 3 6 1 -8
BITMAP
E0
E0
E0
60
40
C0
ENDCHAR
ENDFONT
